<?xml version="1.0" encoding="UTF-8" standalone="no"?>
<svg width="135px" height="40px" viewBox="0 0 135 40" version="1.1" xmlns="http://www.w3.org/2000/svg" xmlns:xlink="http://www.w3.org/1999/xlink">
    <!-- Generator: Sketch 3.8.3 (29802) - http://www.bohemiancoding.com/sketch -->
    <title>google-play</title>
    <desc>Created with Sketch.</desc>
    <defs>
        <linearGradient x1="-0.28%" y1="0.22%" x2="-0.21%" y2="0.12%" id="linearGradient-1">
            <stop stop-color="#32A071" offset="0%"></stop>
            <stop stop-color="#2DA771" offset="6.85%"></stop>
            <stop stop-color="#15CF74" offset="47.62%"></stop>
            <stop stop-color="#06E775" offset="80.09%"></stop>
            <stop stop-color="#00F076" offset="100%"></stop>
        </linearGradient>
        <linearGradient x1="93.3945736%" y1="74.1308%" x2="-60.6589147%" y2="33.1472%" id="linearGradient-2">
            <stop stop-color="#00A0FF" offset="0%"></stop>
            <stop stop-color="#00A1FF" offset="0.6599999%"></stop>
            <stop stop-color="#00BEFF" offset="26.01%"></stop>
            <stop stop-color="#00D2FF" offset="51.22%"></stop>
            <stop stop-color="#00DFFF" offset="76.04%"></stop>
            <stop stop-color="#00E3FF" offset="100%"></stop>
        </linearGradient>
        <linearGradient x1="107.728079%" y1="50.2511905%" x2="-130.66601%" y2="50.2511905%" id="linearGradient-3">
            <stop stop-color="#FFE000" offset="0%"></stop>
            <stop stop-color="#FFBD00" offset="40.87%"></stop>
            <stop stop-color="#FFA500" offset="77.54%"></stop>
            <stop stop-color="#FF9C00" offset="100%"></stop>
        </linearGradient>
        <linearGradient x1="86.384594%" y1="17.8993111%" x2="-49.8892419%" y2="194.484247%" id="linearGradient-4">
            <stop stop-color="#FF3A44" offset="0%"></stop>
            <stop stop-color="#C31162" offset="100%"></stop>
        </linearGradient>
        <linearGradient x1="-18.5809138%" y1="-54.5917418%" x2="42.278024%" y2="24.6221298%" id="linearGradient-5">
            <stop stop-color="#32A071" offset="0%"></stop>
            <stop stop-color="#2DA771" offset="6.85%"></stop>
            <stop stop-color="#15CF74" offset="47.62%"></stop>
            <stop stop-color="#06E775" offset="80.09%"></stop>
            <stop stop-color="#00F076" offset="100%"></stop>
        </linearGradient>
    </defs>
    <g id="Page-1" stroke="none" stroke-width="1" fill="none" fill-rule="evenodd">
        <g id="google-play">
            <rect id="Rectangle-path" fill="url(#linearGradient-1)" x="22.9" y="20" width="-0.1" height="-0.1"></rect>
            <path d="M130,0.8 L5,0.8 C2.7,0.8 0.8,2.7 0.8,5 L0.8,35 C0.8,37.3 2.7,39.2 5,39.2 L130,39.2 C132.3,39.2 134.2,37.3 134.2,35 L134.2,5 C134.2,2.7 132.3,0.8 130,0.8 L130,0.8 Z" id="Path" fill="#000000"></path>
            <path d="M32.0149986,21.446 L27.1219988,24.226 L27.0529988,24.264 L12.5129995,32.525 C11.6559995,33.012 10.8959995,32.952 10.4349996,32.464 C10.1439996,32.156 9.97199959,31.679 9.97199959,31.059 L9.97199959,8.94300001 C9.97199959,8.32400001 10.1439996,7.84600001 10.4349996,7.53800001 L10.5089996,7.46500001 L10.5209996,7.47700001 C10.4949996,7.50100001 10.4609996,7.51200001 10.4359996,7.53800001 C10.8969995,7.05100001 11.6569995,6.99000001 12.5139995,7.47700001 L27.1219988,15.777 L27.1209988,15.778 L27.1219988,15.778 L32.0149986,18.558 C33.4129985,19.352 33.4129985,20.651 32.0149986,21.446" id="Fill-1" fill="url(#linearGradient-2)"></path>
            <polygon id="Shape" fill="#FFFFFF" points="75.6 7 76.5 7 79.4 11.7 79.5 11.7 79.4 10.5 79.4 7 80.2 7 80.2 13 79.4 13 76.3 8.1 76.3 8.1 76.3 9.3 76.3 13 75.6 13"></polygon>
            <path d="M69.2,7.8 C69.8,7.2 70.5,6.9 71.4,6.9 C72.3,6.9 73,7.2 73.6,7.8 C74.2,8.4 74.5,9.1 74.5,10 C74.5,10.9 74.2,11.6 73.6,12.2 C73,12.8 72.3,13.1 71.4,13.1 C70.5,13.1 69.8,12.8 69.2,12.2 C68.6,11.6 68.3,10.9 68.3,10 C68.3,9.1 68.6,8.4 69.2,7.8 Z M71.4,12.4 C72,12.4 72.6,12.2 73,11.7 C73.4,11.2 73.7,10.7 73.7,10 C73.7,9.3 73.5,8.7 73,8.3 C72.6,7.8 72,7.6 71.4,7.6 C70.8,7.6 70.2,7.8 69.8,8.3 C69.4,8.7 69.1,9.3 69.1,10 C69.1,10.7 69.3,11.3 69.8,11.7 C70.2,12.2 70.8,12.4 71.4,12.4 Z" id="Combined-Shape" fill="#FFFFFF"></path>
            <polygon id="Shape" fill="#FFFFFF" points="61.7 7.7 61.7 7 65.8 7 65.8 7.7 64.1 7.7 64.1 13 63.4 13 63.4 7.7"></polygon>
            <rect id="Rectangle-path" fill="#FFFFFF" x="59.9" y="7" width="0.8" height="6"></rect>
            <polygon id="Shape" fill="#FFFFFF" points="52.8 7.7 52.8 7 57 7 57 7.7 55.3 7.7 55.3 13 54.5 13 54.5 7.7"></polygon>
            <polygon id="Shape" fill="#FFFFFF" points="48.5 7 52 7 52 7.7 49.3 7.7 49.3 9.6 51.8 9.6 51.8 10.4 49.3 10.4 49.3 12.3 52 12.3 52 13 48.5 13"></polygon>
            <path d="M42.3,7.8 C42.9,7.2 43.6,6.9 44.5,6.9 C44.9,6.9 45.3,7 45.7,7.2 C46.1,7.4 46.4,7.6 46.6,7.9 L46.1,8.4 C45.7,7.9 45.2,7.7 44.5,7.7 C43.9,7.7 43.3,7.9 42.9,8.4 C42.4,8.8 42.2,9.4 42.2,10.1 C42.2,10.8 42.4,11.4 42.9,11.8 C43.4,12.2 43.9,12.5 44.5,12.5 C45.2,12.5 45.7,12.3 46.2,11.8 C46.5,11.5 46.7,11.1 46.7,10.6 L44.5,10.6 L44.5,9.8 L47.4,9.8 L47.4,10.3 C47.4,11.1 47.2,11.8 46.7,12.3 C46.1,12.9 45.4,13.2 44.5,13.2 C43.6,13.2 42.9,12.9 42.3,12.3 C41.7,11.7 41.4,11 41.4,10.1 C41.4,9.1 41.7,8.4 42.3,7.8 L42.3,7.8 Z" id="Shape" fill="#FFFFFF"></path>
            <polygon id="Shape" fill="#FFFFFF" points="120.7 34 118.7 34 120.6 29.8 117.3 22.3 119.3 22.3 121.5 27.7 121.6 27.7 123.7 22.3 125.8 22.3"></polygon>
            <path d="M113.4,22 C112,22 110.6,22.6 110.1,23.9 L111.8,24.6 C112.2,23.9 112.8,23.7 113.5,23.7 C114.5,23.7 115.4,24.3 115.5,25.3 L115.5,25.4 C115.2,25.2 114.4,24.9 113.6,24.9 C111.8,24.9 110,25.9 110,27.7 C110,29.4 111.5,30.5 113.1,30.5 C114.4,30.5 115,29.9 115.5,29.3 L115.6,29.3 L115.6,30.3 L117.4,30.3 L117.4,25.5 C117.2,23.2 115.5,22 113.4,22 L113.4,22 Z M113.2,28.8 C112.6,28.8 111.7,28.5 111.7,27.7 C111.7,26.7 112.8,26.4 113.7,26.4 C114.5,26.4 114.9,26.6 115.4,26.8 C115.2,28 114.2,28.8 113.2,28.8 L113.2,28.8 Z" id="Shape" fill="#FFFFFF"></path>
            <rect id="Rectangle-path" fill="#FFFFFF" x="106.9" y="17.8" width="1.9" height="12.5"></rect>
            <path d="M101.8,17.8 L97.3,17.8 L97.3,30.3 L99.2,30.3 L99.2,25.6 L101.8,25.6 C103.9,25.6 105.9,24.1 105.9,21.7 C105.9,19.3 103.9,17.8 101.8,17.8 L101.8,17.8 Z M101.9,23.8 L99.2,23.8 L99.2,19.5 L101.9,19.5 C103.3,19.5 104.1,20.7 104.1,21.6 C104,22.6 103.2,23.8 101.9,23.8 L101.9,23.8 Z" id="Shape" fill="#FFFFFF"></path>
            <path d="M89.6,28.8 C88.6,28.8 88,28.4 87.5,27.5 L93.2,25.1 L93,24.6 C92.6,23.6 91.6,21.9 89.4,21.9 C87.2,21.9 85.4,23.6 85.4,26.2 C85.4,28.6 87.2,30.5 89.6,30.5 C91.5,30.5 92.7,29.3 93.1,28.6 L91.7,27.6 C91.2,28.4 90.6,28.8 89.6,28.8 L89.6,28.8 Z M89.5,23.6 C90.2,23.6 90.9,24 91.1,24.5 L87.3,26.1 C87.2,24.5 88.5,23.6 89.5,23.6 L89.5,23.6 Z" id="Shape" fill="#FFFFFF"></path>
            <rect id="Rectangle-path" fill="#FFFFFF" x="82.6" y="17.8" width="1.9" height="12.5"></rect>
            <path d="M79.6,22.3 L79.6,23 L79.5,23 C79.1,22.5 78.3,22 77.3,22 C75.2,22 73.2,23.9 73.2,26.3 C73.2,28.7 75.1,30.5 77.3,30.5 C78.3,30.5 79.1,30 79.5,29.5 L79.6,29.5 L79.6,30.1 C79.6,31.7 78.7,32.6 77.3,32.6 C76.2,32.6 75.4,31.8 75.2,31.1 L73.6,31.8 C74.1,32.9 75.3,34.3 77.4,34.3 C79.6,34.3 81.4,33 81.4,29.9 L81.4,22.3 L79.6,22.3 L79.6,22.3 Z M77.4,28.8 C76.1,28.8 75,27.7 75,26.2 C75,24.7 76.1,23.6 77.4,23.6 C78.7,23.6 79.7,24.7 79.7,26.2 C79.7,27.8 78.7,28.8 77.4,28.8 L77.4,28.8 Z" id="Shape" fill="#FFFFFF"></path>
            <path d="M68.1,22 C65.7,22 63.8,23.8 63.8,26.3 C63.8,28.7 65.7,30.6 68.1,30.6 C70.5,30.6 72.4,28.8 72.4,26.3 C72.4,23.8 70.5,22 68.1,22 L68.1,22 Z M68.1,28.8 C66.8,28.8 65.7,27.7 65.7,26.2 C65.7,24.7 66.8,23.6 68.1,23.6 C69.4,23.6 70.5,24.6 70.5,26.2 C70.5,27.8 69.4,28.8 68.1,28.8 L68.1,28.8 Z" id="Shape" fill="#FFFFFF"></path>
            <path d="M58.8,22 C56.4,22 54.5,23.8 54.5,26.3 C54.5,28.7 56.4,30.6 58.8,30.6 C61.2,30.6 63.1,28.8 63.1,26.3 C63.1,23.8 61.2,22 58.8,22 L58.8,22 Z M58.8,28.8 C57.5,28.8 56.4,27.7 56.4,26.2 C56.4,24.7 57.5,23.6 58.8,23.6 C60.1,23.6 61.2,24.6 61.2,26.2 C61.2,27.8 60.1,28.8 58.8,28.8 L58.8,28.8 Z" id="Shape" fill="#FFFFFF"></path>
            <path d="M52.4,28.7 C51.2,29.9 49.8,30.6 47.8,30.6 C44.2,30.6 41.1,27.6 41.1,24 C41.1,20.4 44.2,17.4 47.8,17.4 C49.8,17.4 51.2,18.2 52.3,19.2 L51,20.4 C50.2,19.7 49.2,19.1 47.7,19.1 C45,19.1 43,21.2 43,23.9 C43,26.6 45.1,28.7 47.7,28.7 C49.4,28.7 50.4,28 51,27.4 C51.5,26.9 51.9,26.1 52,25.1 L47.7,25.1 L47.7,23.3 L47.7,23.3 L53.8,23.3 C53.9,23.6 53.9,24 53.9,24.4 C53.9,25.8 53.5,27.5 52.4,28.7 L52.4,28.7 Z" id="Shape" fill="#FFFFFF"></path>
            <path d="M27.013,24.274 L22.888,20.146 L22.888,19.854 L27.015,15.727 L31.997,18.557 C33.393,19.351 33.393,20.649 31.997,21.442 L27.108,24.22 L27.013,24.274" id="Fill-21" fill="url(#linearGradient-3)"></path>
            <path d="M27.108,24.22 L22.888,20 L10.435,32.453 C10.896,32.94 11.656,33 12.512,32.514 L27.108,24.22" id="Fill-23" fill="url(#linearGradient-4)"></path>
            <path d="M27.108,15.78 L12.512,7.486 C11.656,7 10.896,7.06 10.435,7.547 L22.888,20 L27.108,15.78" id="Fill-26" fill="url(#linearGradient-5)"></path>
            <path d="M130,0.8 C132.3,0.8 134.2,2.7 134.2,5 L134.2,35 C134.2,37.3 132.3,39.2 130,39.2 L5,39.2 C2.7,39.2 0.8,37.3 0.8,35 L0.8,5 C0.8,2.7 2.7,0.8 5,0.8 L130,0.8 L130,0.8 L130,0.8 Z M130,0 L5,0 C2.2,0 0,2.2 0,5 L0,35 C0,37.8 2.2,40 5,40 L130,40 C132.8,40 135,37.8 135,35 L135,5 C135,2.2 132.8,0 130,0 L130,0 L130,0 L130,0 Z" id="outline" fill="#A6A6A6"></path>
        </g>
    </g>
</svg>